<svg width="50" height="44" viewBox="0 0 50 44" fill="none" xmlns="http://www.w3.org/2000/svg">
<path d="M25 0.125C11.1914 0.125 0 9.2168 0 20.4375C0 25.2812 2.08984 29.7148 5.56641 33.2012C4.3457 38.123 0.263672 42.5078 0.214844 42.5566C0 42.7812 -0.0585937 43.1133 0.0683594 43.4062C0.195312 43.6992 0.46875 43.875 0.78125 43.875C7.25586 43.875 12.1094 40.7695 14.5117 38.8555C17.7051 40.0566 21.25 40.75 25 40.75C38.8086 40.75 50 31.6582 50 20.4375C50 9.2168 38.8086 0.125 25 0.125ZM12.5 23.5625C10.7715 23.5625 9.375 22.166 9.375 20.4375C9.375 18.709 10.7715 17.3125 12.5 17.3125C14.2285 17.3125 15.625 18.709 15.625 20.4375C15.625 22.166 14.2285 23.5625 12.5 23.5625ZM25 23.5625C23.2715 23.5625 21.875 22.166 21.875 20.4375C21.875 18.709 23.2715 17.3125 25 17.3125C26.7285 17.3125 28.125 18.709 28.125 20.4375C28.125 22.166 26.7285 23.5625 25 23.5625ZM37.5 23.5625C35.7715 23.5625 34.375 22.166 34.375 20.4375C34.375 18.709 35.7715 17.3125 37.5 17.3125C39.2285 17.3125 40.625 18.709 40.625 20.4375C40.625 22.166 39.2285 23.5625 37.5 23.5625Z" fill="#7200B8" fill-opacity="0.5"/>
</svg>
