<svg width="25" height="20" viewBox="0 0 25 20" fill="none" xmlns="http://www.w3.org/2000/svg">
<path d="M0 17.6389C0 18.7891 0.93316 19.7222 2.08333 19.7222H22.9167C24.0668 19.7222 25 18.7891 25 17.6389V9.99999H0V17.6389ZM8.33333 14.6875C8.33333 14.401 8.56771 14.1667 8.85417 14.1667H14.7569C15.0434 14.1667 15.2778 14.401 15.2778 14.6875V16.4236C15.2778 16.7101 15.0434 16.9444 14.7569 16.9444H8.85417C8.56771 16.9444 8.33333 16.7101 8.33333 16.4236V14.6875ZM2.77778 14.6875C2.77778 14.401 3.01215 14.1667 3.29861 14.1667H6.42361C6.71007 14.1667 6.94444 14.401 6.94444 14.6875V16.4236C6.94444 16.7101 6.71007 16.9444 6.42361 16.9444H3.29861C3.01215 16.9444 2.77778 16.7101 2.77778 16.4236V14.6875ZM25 2.3611V4.44444H0V2.3611C0 1.21093 0.93316 0.277771 2.08333 0.277771H22.9167C24.0668 0.277771 25 1.21093 25 2.3611Z" fill="white"/>
</svg>
