<svg width="25" height="20" viewBox="0 0 25 20" fill="none" xmlns="http://www.w3.org/2000/svg">
<path d="M12.1688 5.32377L4.16665 11.9145V19.0278C4.16665 19.2119 4.23981 19.3886 4.37004 19.5188C4.50028 19.649 4.67691 19.7222 4.86109 19.7222L9.7248 19.7096C9.90838 19.7087 10.0841 19.6351 10.2136 19.505C10.3431 19.3749 10.4158 19.1988 10.4158 19.0152V14.8611C10.4158 14.6769 10.4889 14.5003 10.6192 14.3701C10.7494 14.2398 10.926 14.1667 11.1102 14.1667H13.888C14.0722 14.1667 14.2488 14.2398 14.379 14.3701C14.5093 14.5003 14.5824 14.6769 14.5824 14.8611V19.0121C14.5822 19.1035 14.5999 19.1941 14.6347 19.2786C14.6695 19.3631 14.7206 19.4399 14.7851 19.5046C14.8496 19.5693 14.9262 19.6207 15.0106 19.6557C15.095 19.6907 15.1855 19.7088 15.2769 19.7088L20.1389 19.7222C20.323 19.7222 20.4997 19.649 20.6299 19.5188C20.7601 19.3886 20.8333 19.2119 20.8333 19.0278V11.9097L12.8329 5.32377C12.7388 5.24796 12.6217 5.20662 12.5008 5.20662C12.38 5.20662 12.2629 5.24796 12.1688 5.32377ZM24.809 9.80338L21.1805 6.81249V0.800771C21.1805 0.662637 21.1257 0.530162 21.028 0.432486C20.9303 0.334811 20.7978 0.279938 20.6597 0.279938H18.2291C18.091 0.279938 17.9585 0.334811 17.8609 0.432486C17.7632 0.530162 17.7083 0.662637 17.7083 0.800771V3.95225L13.8225 0.755198C13.4496 0.448331 12.9816 0.280551 12.4987 0.280551C12.0157 0.280551 11.5478 0.448331 11.1749 0.755198L0.188347 9.80338C0.135607 9.84697 0.0919735 9.90052 0.0599388 9.96098C0.0279041 10.0214 0.00809631 10.0876 0.00164726 10.1557C-0.00480179 10.2239 0.00223428 10.2926 0.0223534 10.358C0.0424726 10.4234 0.0752806 10.4842 0.118903 10.5369L1.22567 11.8824C1.26918 11.9353 1.32269 11.9791 1.38314 12.0113C1.44359 12.0434 1.5098 12.0634 1.57797 12.07C1.64614 12.0765 1.71494 12.0696 1.78043 12.0496C1.84592 12.0295 1.90681 11.9967 1.95961 11.9531L12.1688 3.54426C12.2629 3.46845 12.38 3.4271 12.5008 3.4271C12.6217 3.4271 12.7388 3.46845 12.8329 3.54426L23.0425 11.9531C23.0952 11.9967 23.156 12.0295 23.2214 12.0497C23.2868 12.0698 23.3555 12.0768 23.4237 12.0704C23.4918 12.0639 23.558 12.0441 23.6184 12.0121C23.6789 11.98 23.7324 11.9364 23.776 11.8837L24.8828 10.5382C24.9264 10.4852 24.959 10.4241 24.9789 10.3584C24.9988 10.2927 25.0055 10.2237 24.9986 10.1554C24.9918 10.0872 24.9715 10.0209 24.939 9.96048C24.9064 9.90006 24.8623 9.84667 24.809 9.80338Z" fill="white"/>
</svg>
